<?xml version="1.0" encoding="UTF-8" standalone="no"?>
<svg
   width="410.11819"
   height="256.17896"
   viewBox="0 0 410.11819 256.17896"
   version="1.1"
   xml:space="preserve"
   style="clip-rule:evenodd;fill-rule:evenodd;stroke-linejoin:round;stroke-miterlimit:2"
   id="svg264"
   sodipodi:docname="UEC_logo_small.svg"
   inkscape:version="1.2.2 (b0a8486541, 2022-12-01)"
   xmlns:inkscape="http://www.inkscape.org/namespaces/inkscape"
   xmlns:sodipodi="http://sodipodi.sourceforge.net/DTD/sodipodi-0.dtd"
   xmlns="http://www.w3.org/2000/svg"
   xmlns:svg="http://www.w3.org/2000/svg"><sodipodi:namedview
   id="namedview266"
   pagecolor="#ffffff"
   bordercolor="#000000"
   borderopacity="0.25"
   inkscape:showpageshadow="2"
   inkscape:pageopacity="0.0"
   inkscape:pagecheckerboard="0"
   inkscape:deskcolor="#d1d1d1"
   showgrid="false"
   inkscape:zoom="1.8766125"
   inkscape:cx="301.60728"
   inkscape:cy="80.197696"
   inkscape:window-width="1854"
   inkscape:window-height="1131"
   inkscape:window-x="0"
   inkscape:window-y="0"
   inkscape:window-maximized="1"
   inkscape:current-layer="g228" />
    <g
   id="アートボード1"
   transform="matrix(0.838319,0,0,0.657835,-788.9795,-3664.2404)">
        <rect
   x="885.73499"
   y="5517.23"
   width="1770.58"
   height="441.99899"
   style="fill:none"
   id="rect2" />
        <clipPath
   id="_clip1">
            <rect
   x="885.73499"
   y="5517.23"
   width="1770.58"
   height="441.99899"
   id="rect4" />
        </clipPath>
        <g
   clip-path="url(#_clip1)"
   id="g230">
            <g
   transform="matrix(1.11733,0,0,1.42388,791.86,-3858.81)"
   id="g228">
                <g
   transform="matrix(4.16667,0,0,4.16667,0,6465.64)"
   id="g9">
                    <path
   d="M 46.18,83.367 C 44.094,83.18 40.895,82.328 39.035,80.816 37.168,79.301 36.387,77.73 36.313,74.918 36.234,71.98 36.234,48.395 36.234,48.395 h 9.489 c 0,0 0.062,25.953 0.078,26.828 0.015,0.871 0.387,2.09 1.312,2.851 0.93,0.758 2.586,1.137 3.91,1.137 1.958,0 3.696,-0.379 4.625,-1.137 0.926,-0.761 1.137,-1.449 1.317,-2.851 0.156,-1.243 0.078,-26.828 0.078,-26.828 h 7.699 c 0,0 0,23.539 -0.074,26.523 -0.07,2.711 -0.855,4.351 -2.719,5.879 -1.836,1.504 -4.383,2.398 -6.543,2.57 -3.418,0.266 -6.363,0.25 -9.226,0"
   style="fill:#2d3983;fill-rule:nonzero"
   id="path7" />
                </g>
                <g
   transform="matrix(4.16667,0,0,4.16667,0,6463.68)"
   id="g13">
                    <path
   d="M 70.016,80.707 V 48.863 h 23.742 v 3.875 H 79.504 v 10.664 h 12.008 v 3.84 H 79.504 v 12.512 h 14.254 v 3.879 h -20.66 c -2.399,0 -3.082,-1.117 -3.082,-2.926"
   style="fill:#2d3983;fill-rule:nonzero"
   id="path11" />
                </g>
                <g
   transform="matrix(4.16667,0,0,4.16667,0,6453.53)"
   id="g17">
                    <path
   d="m 99.777,83.996 0.375,-0.211 c 2.25,-1.246 4.461,-2.566 6.578,-3.922 l 0.024,-0.019 c -0.289,-0.625 -0.453,-1.309 -0.473,-1.895 -0.156,-4.738 -0.133,-12.914 0,-18.023 0.047,-1.82 0.227,-2.633 1.403,-3.617 0.921,-0.774 2.511,-1.149 3.816,-1.207 1.332,-0.067 1.609,-0.075 4.313,0 2.691,0.07 4.351,0.457 4.722,3.019 h 4.766 c -0.36,-5.14 -3.524,-6.762 -9.488,-6.973 -5.954,-0.21 -7.008,-0.101 -9.532,0.075 -2.418,0.168 -4.902,0.843 -6.734,2.379 -1.836,1.527 -2.656,3.007 -2.75,6.171 -0.242,7.918 -0.242,11.583 0,17.872 0.058,1.648 0.328,3.886 2.793,6.203 l 0.187,0.148"
   style="fill:#2d3983;fill-rule:nonzero"
   id="path15" />
                </g>
                <g
   transform="matrix(4.16667,0,0,4.16667,0,6581.73)"
   id="g21">
                    <path
   d="m 115.813,51.551 c -2.649,0.054 -2.801,0.047 -4.309,0 -0.328,-0.012 -0.652,-0.047 -0.977,-0.098 l -0.773,0.481 c -1.742,1.086 -3.578,2.16 -5.449,3.214 0.793,0.164 1.504,0.258 1.976,0.278 1.922,0.09 4.063,0.211 9.532,0.078 5.359,-0.133 9.074,-1.836 9.492,-6.977 h -4.77 c -0.359,2.559 -2.047,2.965 -4.722,3.024"
   style="fill:#2d3983;fill-rule:nonzero"
   id="path19" />
                </g>
                <g
   transform="matrix(4.16667,0,0,4.16667,0,6468.16)"
   id="g30">
                    <clipPath
   id="_clip2">
                        <path
   d="m 47.816,66.621 c -0.289,0.238 -0.574,0.469 -0.851,0.703 v 0.121 c 0,0.602 0,1.176 0.004,1.711 0.508,-0.496 1.043,-0.996 1.59,-1.496 3.488,-3.168 6,-5.011 5.726,-5.359 L 54.18,62.266 c -0.637,0 -3.61,2.125 -6.364,4.355 z"
   clip-rule="nonzero"
   id="path23" />
                    </clipPath>
                    <g
   clip-path="url(#_clip2)"
   id="g28">
                        <path
   d="m 47.816,66.621 c -0.289,0.238 -0.574,0.469 -0.851,0.703 v 0.121 c 0,0.602 0,1.176 0.004,1.711 0.508,-0.496 1.043,-0.996 1.59,-1.496 3.488,-3.168 6,-5.011 5.726,-5.359 L 54.18,62.266 c -0.637,0 -3.61,2.125 -6.364,4.355"
   style="fill:url(#_Linear3);fill-rule:nonzero"
   id="path26" />
                    </g>
                </g>
                <g
   transform="matrix(4.16667,0,0,4.16667,0,6505.85)"
   id="g39">
                    <clipPath
   id="_clip4">
                        <path
   d="m 95.75,32.797 c -3.676,1.109 -6.012,1.93 -5.895,2.223 0.114,0.296 4.52,-1.079 6.09,-1.485 16.965,-4.453 30.868,-3.535 34.188,3.578 4.543,9.747 -12.332,27.239 -37.692,39.067 -25.359,11.824 -49.601,13.508 -54.144,3.761 -1.039,-2.226 -0.961,-4.882 0.082,-7.777 -1,-0.82 -1.754,-1.644 -2.301,-2.598 -2.211,3.118 -3.597,6.079 -4.012,8.743 v 3.172 c 0.122,0.671 0.325,1.324 0.614,1.937 4.828,10.363 31.968,7.938 60.609,-5.418 28.649,-13.355 47.953,-32.59 43.117,-42.953 -2.023,-4.336 -7.929,-6.453 -16.23,-6.453 -6.809,0 -15.223,1.422 -24.426,4.203 z"
   clip-rule="nonzero"
   id="path32" />
                    </clipPath>
                    <g
   clip-path="url(#_clip4)"
   id="g37">
                        <path
   d="m 95.75,32.797 c -3.676,1.109 -6.012,1.93 -5.895,2.223 0.114,0.297 4.52,-1.079 6.09,-1.485 16.965,-4.453 30.868,-3.535 34.188,3.578 4.543,9.746 -12.332,27.239 -37.692,39.067 -25.359,11.824 -49.601,13.508 -54.144,3.762 -1.039,-2.227 -0.961,-4.883 0.082,-7.778 -1,-0.82 -1.754,-1.644 -2.301,-2.597 -2.211,3.117 -3.597,6.078 -4.012,8.742 v 3.172 c 0.122,0.671 0.325,1.324 0.614,1.937 4.828,10.363 31.968,7.938 60.609,-5.418 28.649,-13.355 47.953,-32.59 43.117,-42.953 -2.023,-4.336 -7.929,-6.453 -16.23,-6.453 -6.809,0 -15.223,1.422 -24.426,4.203"
   style="fill:url(#_Linear5);fill-rule:nonzero"
   id="path35" />
                    </g>
                </g>
                <g
   transform="matrix(0,4.16667,4.16667,0,51.2858,6675.35)"
   id="g48">
                    <clipPath
   id="_clip6">
                        <path
   d="m 47.004,28.852 c 3.219,0 5.836,2.617 5.836,5.843 0,3.223 -2.617,5.84 -5.836,5.84 -3.223,0 -5.84,-2.617 -5.84,-5.84 0,-3.226 2.617,-5.843 5.84,-5.843 z"
   clip-rule="nonzero"
   id="path41" />
                    </clipPath>
                    <g
   clip-path="url(#_clip6)"
   id="g46">
                        <path
   d="m 47.004,28.852 c 3.219,0 5.836,2.617 5.836,5.843 0,3.223 -2.617,5.84 -5.836,5.84 -3.223,0 -5.84,-2.617 -5.84,-5.84 0,-3.226 2.617,-5.843 5.84,-5.843"
   style="fill:url(#_Radial7);fill-rule:nonzero"
   id="path44" />
                    </g>
                </g>
                <g
   transform="matrix(0,4.16667,4.16667,0,240.518,6211.04)"
   id="g57">
                    <clipPath
   id="_clip8">
                        <path
   d="m 125.424,62.975 c 2.609,0 4.734,2.117 4.734,4.735 0,2.609 -2.125,4.722 -4.734,4.722 -2.61,0 -4.727,-2.113 -4.727,-4.722 0,-2.618 2.117,-4.735 4.727,-4.735 z"
   clip-rule="nonzero"
   id="path50" />
                    </clipPath>
                    <g
   clip-path="url(#_clip8)"
   id="g55">
                        <path
   d="m 125.424,62.975 c 2.609,0 4.734,2.117 4.734,4.735 0,2.609 -2.125,4.722 -4.734,4.722 -2.61,0 -4.727,-2.113 -4.727,-4.722 0,-2.618 2.117,-4.735 4.727,-4.735"
   style="fill:url(#_Radial9);fill-rule:nonzero"
   id="path53" />
                    </g>
                </g>
                <g
   transform="matrix(0,4.16667,4.16667,0,68.4083,6181.54)"
   id="g66">
                    <clipPath
   id="_clip10">
                        <path
   d="m 108.313,89.297 c 1.437,0 2.601,1.164 2.601,2.601 0,1.438 -1.164,2.598 -2.601,2.598 -1.434,0 -2.598,-1.16 -2.598,-2.598 0,-1.437 1.164,-2.601 2.598,-2.601 z"
   clip-rule="nonzero"
   id="path59" />
                    </clipPath>
                    <g
   clip-path="url(#_clip10)"
   id="g64">
                        <path
   d="m 108.313,89.297 c 1.437,0 2.601,1.164 2.601,2.601 0,1.438 -1.164,2.598 -2.601,2.598 -1.434,0 -2.598,-1.16 -2.598,-2.598 0,-1.437 1.164,-2.601 2.598,-2.601"
   style="fill:url(#_Radial11);fill-rule:nonzero"
   id="path62" />
                    </g>
                </g>
                
                
                
                
                
                
                
                
                
                
                
                
                
                
                
                
                
                
                
                
                
                
                
                
                
                
                
                
                
                
                
                
                
                
                
                
                
                
                
                
            </g>
        </g>
    </g>
    <defs
   id="defs262">
        <linearGradient
   id="_Linear3"
   x1="0"
   y1="0"
   x2="1"
   y2="0"
   gradientUnits="userSpaceOnUse"
   gradientTransform="matrix(63.4724,0,0,-63.4724,65.7444,65.7115)"><stop
     offset="0"
     style="stop-color:rgb(78,185,224);stop-opacity:1"
     id="stop233" /><stop
     offset="0.7"
     style="stop-color:rgb(46,56,130);stop-opacity:1"
     id="stop235" /><stop
     offset="1"
     style="stop-color:rgb(46,56,130);stop-opacity:1"
     id="stop237" /></linearGradient>
        <linearGradient
   id="_Linear5"
   x1="0"
   y1="0"
   x2="1"
   y2="0"
   gradientUnits="userSpaceOnUse"
   gradientTransform="matrix(63.471,0,0,63.4774,65.746,59.2225)"><stop
     offset="0"
     style="stop-color:rgb(26,167,203);stop-opacity:1"
     id="stop240" /><stop
     offset="0.7"
     style="stop-color:rgb(45,56,130);stop-opacity:1"
     id="stop242" /><stop
     offset="1"
     style="stop-color:rgb(45,56,130);stop-opacity:1"
     id="stop244" /></linearGradient>
        <radialGradient
   id="_Radial7"
   cx="0"
   cy="0"
   r="1"
   gradientUnits="userSpaceOnUse"
   gradientTransform="matrix(4.01292,4.5141,-4.51456,4.01252,45.891,31.903)"><stop
     offset="0"
     style="stop-color:white;stop-opacity:1"
     id="stop247" /><stop
     offset="1"
     style="stop-color:rgb(113,111,170);stop-opacity:1"
     id="stop249" /></radialGradient>
        <radialGradient
   id="_Radial9"
   cx="0"
   cy="0"
   r="1"
   gradientUnits="userSpaceOnUse"
   gradientTransform="matrix(3.24922,3.655,-3.65538,3.24888,124.527,65.4457)"><stop
     offset="0"
     style="stop-color:white;stop-opacity:1"
     id="stop252" /><stop
     offset="1"
     style="stop-color:rgb(113,111,170);stop-opacity:1"
     id="stop254" /></radialGradient>
        <radialGradient
   id="_Radial11"
   cx="0"
   cy="0"
   r="1"
   gradientUnits="userSpaceOnUse"
   gradientTransform="matrix(1.78642,2.00952,-2.00972,1.78624,107.82,90.655)"><stop
     offset="0"
     style="stop-color:white;stop-opacity:1"
     id="stop257" /><stop
     offset="1"
     style="stop-color:rgb(113,111,170);stop-opacity:1"
     id="stop259" /></radialGradient>
    </defs>
</svg>
